HIERARCHY
ROOT SpineBase
{
  OFFSET 0.000000 0.000000 0.000000
  CHANNELS 6 Xposition Yposition Zposition Zrotation Xrotation Yrotation
  JOINT SpineMid
  {
    OFFSET 0.000000 35.802888 0.000000
    CHANNELS 3 Zrotation Xrotation Yrotation
    JOINT SpineShoulder
    {
      OFFSET -0.367558 26.594474 -1.157274
      CHANNELS 3 Zrotation Xrotation Yrotation
      JOINT Neck
      {
        OFFSET -0.140080 8.772133 -0.700587
        CHANNELS 3 Zrotation Xrotation Yrotation
        JOINT Head
        {
          OFFSET -3.345878 11.332618 7.036737
          CHANNELS 3 Zrotation Xrotation Yrotation
          End Site
          {
            OFFSET 0 0 0
          }
        }
      }
      JOINT ShoulderLeft
      {
        OFFSET -11.157881 -4.238253 16.872484
        CHANNELS 3 Zrotation Xrotation Yrotation
        JOINT ElbowLeft
        {
          OFFSET 1.489756 -21.579050 -1.645324
          CHANNELS 3 Zrotation Xrotation Yrotation
          JOINT WristLeft
          {
            OFFSET -11.676700 -25.505416 7.087163
            CHANNELS 3 Zrotation Xrotation Yrotation
            JOINT HandLeft
            {
              OFFSET -6.168185 3.200025 2.642304
              CHANNELS 3 Zrotation Xrotation Yrotation
              JOINT HandTipLeft
              {
                OFFSET -1.119817 -1.946972 -1.539422
                CHANNELS 3 Zrotation Xrotation Yrotation
                End Site
                {
                  OFFSET 0 0 0
                }
              }
              JOINT ThumbLeft
              {
                OFFSET -0.535126 1.473070 -3.520534
                CHANNELS 3 Zrotation Xrotation Yrotation
                End Site
                {
                  OFFSET 0 0 0
                }
              }
            }
          }
        }
      }
      JOINT ShoulderRight
      {
        OFFSET -1.870427 -6.094440 -13.205636
        CHANNELS 3 Zrotation Xrotation Yrotation
        JOINT ElbowRight
        {
          OFFSET -11.019655 -24.508291 -5.950210
          CHANNELS 3 Zrotation Xrotation Yrotation
          JOINT WristRight
          {
            OFFSET -10.487851 -23.310360 2.093368
            CHANNELS 3 Zrotation Xrotation Yrotation
            JOINT HandRight
            {
              OFFSET -2.084938 -8.965807 2.737202
              CHANNELS 3 Zrotation Xrotation Yrotation
              JOINT HandTipRight
              {
                OFFSET -4.672907 -6.623456 2.564382
                CHANNELS 3 Zrotation Xrotation Yrotation
                End Site
                {
                  OFFSET 0 0 0
                }
              }
              JOINT ThumbRight
              {
                OFFSET 4.811169 -2.300629 -4.015832
                CHANNELS 3 Zrotation Xrotation Yrotation
                End Site
                {
                  OFFSET 0 0 0
                }
              }
            }
          }
        }
      }
    }
  }
  JOINT HipLeft
  {
    OFFSET -2.620885 0.973416 -0.528519
    CHANNELS 3 Zrotation Xrotation Yrotation
    JOINT KneeLeft
    {
      OFFSET -8.160216 -40.490568 -4.402062
      CHANNELS 3 Zrotation Xrotation Yrotation
      JOINT AnkleLeft
      {
        OFFSET -10.314400 -34.449122 -9.571091
        CHANNELS 3 Zrotation Xrotation Yrotation
        JOINT FootLeft
        {
          OFFSET -5.763818 -5.493619 -1.919748
          CHANNELS 3 Zrotation Xrotation Yrotation
          End Site
          {
            OFFSET 0 0 0
          }
        }
      }
    }
  }
  JOINT HipRight
  {
    OFFSET 1.334648 1.551842 -7.474946
    CHANNELS 3 Zrotation Xrotation Yrotation
    JOINT KneeRight
    {
      OFFSET -20.343966 -36.389153 -3.801889
      CHANNELS 3 Zrotation Xrotation Yrotation
      JOINT AnkleRight
      {
        OFFSET 14.102312 -34.586637 10.128472
        CHANNELS 3 Zrotation Xrotation Yrotation
        JOINT FootRight
        {
          OFFSET -11.808384 -4.734902 -9.364022
          CHANNELS 3 Zrotation Xrotation Yrotation
          End Site
          {
            OFFSET 0 0 0
          }
        }
      }
    }
  }
}
MOTION
Frames: 10
Frame Time: 0.033333
48.616626 81.961955 304.531895 -0.000000 0.000000 60.341333 0.000000 -0.000000 -60.341333 -0.000000 0.000000 0.000000 -0.000000 0.000000 0.000000 0.000000 0.000000 0.000000 -0.000000 0.000000 0.000000 -0.000000 0.000000 0.000000 -0.000000 0.000000 0.000000 -0.000000 0.000000 0.000000 0.000000 0.000000 0.000000 0.000000 0.000000 0.000000 -0.000000 0.000000 0.000000 -0.000000 0.000000 0.000000 -0.000000 0.000000 0.000000 -0.000000 0.000000 0.000000 0.000000 0.000000 0.000000 0.000000 0.000000 0.000000 0.000000 -0.000000 -60.341333 -0.000000 0.000000 0.000000 -0.000000 0.000000 0.000000 0.000000 0.000000 0.000000 0.000000 -0.000000 -60.341333 -0.000000 0.000000 0.000000 -0.000000 0.000000 0.000000 0.000000 0.000000 0.000000
48.753509 81.922385 304.735720 0.188233 -0.236546 60.801239 0.114661 0.279712 -60.801130 -0.000000 0.000000 0.000000 -0.000000 0.000000 0.000000 0.000000 0.000000 0.000000 -0.000000 0.000000 0.000000 -0.000000 0.000000 0.000000 -0.000000 0.000000 0.000000 -0.000000 0.000000 0.000000 0.000000 0.000000 0.000000 0.000000 0.000000 0.000000 -0.000000 0.000000 0.000000 -0.000000 0.000000 0.000000 -0.000000 0.000000 0.000000 2.897706 0.215169 0.983123 0.000000 0.000000 0.000000 0.000000 0.000000 0.000000 0.114661 0.279712 -60.801130 -0.000000 0.000000 0.000000 5.556294 -5.411250 4.288521 0.000000 0.000000 0.000000 0.114661 0.279712 -60.801130 -0.000000 0.000000 0.000000 -0.000000 0.000000 0.000000 0.000000 0.000000 0.000000
48.865158 81.897091 304.906795 0.344361 -0.432441 61.139942 0.212518 0.510318 -61.139589 -0.000000 0.000000 0.000000 -0.000000 0.000000 0.000000 0.000000 0.000000 0.000000 -0.000000 0.000000 0.000000 -0.000000 0.000000 0.000000 -0.000000 0.000000 0.000000 -0.000000 0.000000 0.000000 0.000000 0.000000 0.000000 0.000000 0.000000 0.000000 -0.000000 0.000000 0.000000 -0.000000 0.000000 0.000000 -0.973690 0.055791 -0.309202 6.241782 0.396769 2.101157 0.000000 0.000000 0.000000 0.000000 0.000000 0.000000 0.473768 1.301594 -61.205062 0.567609 -0.610068 0.064364 11.363497 -9.797283 8.414610 0.000000 0.000000 0.000000 0.212518 0.510318 -61.139589 -0.000000 0.000000 0.000000 -0.066348 0.529435 -1.176361 0.000000 0.000000 0.000000
48.951572 81.886071 305.045120 0.468579 -0.587931 61.356513 0.291361 0.693062 -61.355871 -0.000000 0.000000 0.000000 0.909228 0.446115 -0.434334 0.000000 0.000000 0.000000 -0.000000 0.000000 0.000000 -0.000000 0.000000 0.000000 -0.000000 0.000000 0.000000 -0.000000 0.000000 0.000000 0.000000 0.000000 0.000000 0.000000 0.000000 0.000000 -0.000000 0.000000 0.000000 -0.000000 0.000000 0.000000 -1.242393 0.105447 -0.401785 8.336698 0.540111 2.824528 0.000000 0.000000 0.000000 0.000000 0.000000 0.000000 0.638658 1.751676 -61.443872 0.763850 -0.811045 0.085998 16.920037 -12.942227 11.909988 0.000000 0.000000 0.000000 0.291361 0.693062 -61.355871 -0.000000 0.000000 0.000000 -0.090211 0.730820 -1.619915 0.000000 0.000000 0.000000
49.012753 81.889327 305.150694 0.561029 -0.703197 61.449571 0.349551 0.828883 -61.448657 -0.000000 0.000000 0.000000 1.156768 0.506770 -0.570517 0.000000 0.000000 0.000000 -0.000000 0.000000 0.000000 -0.000000 0.000000 0.000000 -0.000000 0.000000 0.000000 -0.000000 0.000000 0.000000 0.000000 0.000000 0.000000 0.000000 0.000000 0.000000 -0.000000 0.000000 0.000000 -0.000000 0.000000 0.000000 -1.367350 0.169201 -0.453733 9.736544 0.609550 3.332730 0.000000 0.000000 0.000000 0.000000 0.000000 0.000000 0.749170 2.071042 -61.551025 0.901840 -0.943030 0.099677 21.813306 -14.885975 14.382112 0.000000 0.000000 0.000000 0.349551 0.828883 -61.448657 -0.000000 0.000000 0.000000 -0.109329 0.890455 -1.968554 0.000000 0.000000 0.000000
49.048699 81.906859 305.223518 0.621791 -0.778348 61.417228 0.386003 0.918390 -61.416098 -0.000000 0.000000 0.000000 1.376571 0.523716 -0.701969 0.000000 0.000000 0.000000 -0.000000 0.000000 0.000000 -0.000000 0.000000 0.000000 -0.000000 0.000000 0.000000 -0.000000 0.000000 0.000000 0.000000 0.000000 0.000000 0.000000 0.000000 0.000000 -0.000000 0.000000 0.000000 -0.000000 0.000000 0.000000 -1.347327 0.247394 -0.465002 10.439912 0.587260 3.628559 0.000000 0.000000 0.000000 0.000000 0.000000 0.000000 0.802545 2.261015 -61.524001 0.981653 -1.006212 0.104966 25.797585 -15.800266 15.586150 0.000000 0.000000 0.000000 0.386003 0.918390 -61.416098 -0.000000 0.000000 0.000000 -0.124517 1.008644 -2.223168 0.000000 0.000000 0.000000
49.055446 81.938926 305.275145 0.645366 -0.824819 61.217027 0.412171 0.962770 -61.215845 -0.000000 0.000000 0.000000 1.848956 0.674164 -0.951967 0.000000 0.000000 0.000000 -0.000000 0.000000 0.000000 -0.000000 0.000000 0.000000 -0.000000 0.000000 0.000000 -0.000000 0.000000 0.000000 0.000000 0.000000 0.000000 0.000000 0.000000 0.000000 -0.000000 0.000000 0.000000 -0.000000 0.000000 0.000000 -1.089581 0.324013 -0.404371 9.326026 0.384690 3.300677 0.000000 0.000000 0.000000 0.000000 0.000000 0.000000 0.818517 2.311204 -61.322549 0.988101 -1.003497 0.103749 41.525471 -18.832063 21.712486 0.000000 0.000000 0.000000 0.412171 0.962770 -61.215845 -0.000000 0.000000 0.000000 -0.138437 1.067164 -2.336016 0.000000 0.000000 0.000000
49.049304 81.977800 305.304383 0.654404 -0.843170 60.982815 0.419895 0.981251 -60.981595 -0.000000 0.000000 0.000000 2.156521 0.714044 -1.131123 0.000000 0.000000 0.000000 -0.000000 0.000000 0.000000 -0.000000 0.000000 0.000000 -0.000000 0.000000 0.000000 -0.000000 0.000000 0.000000 0.000000 0.000000 0.000000 0.000000 0.000000 0.000000 -0.000000 0.000000 0.000000 -0.000000 0.000000 0.000000 -0.000000 0.000000 0.000000 6.559273 0.123012 2.552315 0.000000 0.000000 0.000000 0.000000 0.000000 0.000000 0.783728 2.284682 -61.078500 0.964984 -0.948728 0.094526 26.559859 -12.875795 10.026801 0.000000 0.000000 0.000000 0.419895 0.981251 -60.981595 -0.000000 0.000000 0.000000 -0.174283 1.112140 -2.372410 0.000000 0.000000 0.000000
49.031585 82.036312 305.289790 0.646913 -0.810073 60.641192 0.388862 0.960983 -60.639880 -0.000000 0.000000 0.000000 2.107427 0.358872 -1.200456 0.000000 0.000000 0.000000 -0.000000 0.000000 0.000000 -0.000000 0.000000 0.000000 -0.000000 0.000000 0.000000 -0.000000 0.000000 0.000000 0.000000 0.000000 0.000000 0.000000 0.000000 0.000000 -0.000000 0.000000 0.000000 -0.000000 0.000000 0.000000 -0.448979 0.801998 -0.320823 7.230693 -0.710909 3.125131 0.000000 0.000000 0.000000 0.000000 0.000000 0.000000 0.664424 2.162467 -60.715156 0.913196 -0.827992 0.074364 20.876008 -9.818711 6.126793 0.000000 0.000000 0.000000 0.388862 0.960983 -60.639880 -0.000000 0.000000 0.000000 -0.171719 1.092062 -2.329403 0.000000 0.000000 0.000000
48.975316 82.105432 305.202019 0.587337 -0.689716 60.258497 0.307486 0.852124 -60.257248 -0.000000 0.000000 0.000000 1.458715 -0.225587 -0.967061 0.000000 0.000000 0.000000 -0.000000 0.000000 0.000000 -0.000000 0.000000 0.000000 -0.000000 0.000000 0.000000 -0.000000 0.000000 0.000000 0.000000 0.000000 0.000000 0.000000 0.000000 0.000000 -0.000000 0.000000 0.000000 -0.000000 0.000000 0.000000 0.764414 1.256077 -0.067440 9.708010 0.133859 3.481819 0.000000 0.000000 0.000000 0.000000 0.000000 0.000000 0.449133 1.841543 -60.298442 0.789273 -0.613248 0.042088 17.057953 -6.815534 2.648657 0.000000 0.000000 0.000000 0.307486 0.852124 -60.257248 -0.000000 0.000000 0.000000 -0.122150 1.048228 -2.323036 0.000000 0.000000 0.000000
